M48
; DRILL file {KiCad 7.0.6} date Thu Dec  7 03:01:28 2023
; FORMAT={-:-/ absolute / inch / decimal}
; #@! TF.CreationDate,2023-12-07T03:01:28-04:00
; #@! TF.GenerationSoftware,Kicad,Pcbnew,7.0.6
; #@! TF.FileFunction,Plated,1,2,PTH
FMAT,2
INCH
; #@! TA.AperFunction,Plated,PTH,ComponentDrill
T1C0.0354
; #@! TA.AperFunction,Plated,PTH,ComponentDrill
T2C0.0394
; #@! TA.AperFunction,Plated,PTH,ComponentDrill
T3C0.0433
; #@! TA.AperFunction,Plated,PTH,ComponentDrill
T4C0.0472
; #@! TA.AperFunction,Plated,PTH,ComponentDrill
T5C0.0512
; #@! TA.AperFunction,Plated,PTH,ComponentDrill
T6C0.0591
; #@! TA.AperFunction,Plated,PTH,ComponentDrill
T7C0.0598
; #@! TA.AperFunction,Plated,PTH,ComponentDrill
T8C0.0630
%
G90
G05
T1
X6.1146Y-4.1319
X6.2146Y-4.1319
X7.4618Y-2.8224
X7.5618Y-2.8224
T2
X4.6618Y-4.1421
X4.7874Y-2.8402
X5.1343Y-4.1421
X5.2598Y-2.8402
X6.5714Y-4.6241
X6.8666Y-4.6241
X7.1619Y-4.6241
X7.4618Y-6.0224
X7.5556Y-4.6241
X7.639Y-6.0224
T3
X3.7618Y-1.7224
X3.7618Y-2.4224
X3.7618Y-3.0224
X3.7618Y-3.5224
X3.7618Y-4.0224
X3.7618Y-4.4224
X3.7618Y-4.9224
X3.7618Y-5.3224
X3.7618Y-6.0224
X3.8618Y-1.7224
X3.8618Y-2.4224
X3.8618Y-5.3224
X3.8618Y-6.0224
X3.9618Y-1.7224
X3.9618Y-2.4224
X3.9618Y-3.0224
X3.9618Y-3.5224
X3.9618Y-4.0224
X3.9618Y-4.4224
X3.9618Y-4.9224
X3.9618Y-5.3224
X3.9618Y-6.0224
T4
X4.4618Y-6.7224
X4.7571Y-6.7224
X6.3618Y-3.5224
X6.9618Y-3.5224
T5
X4.6618Y-4.6224
X4.7874Y-3.3205
X4.9Y-4.0654
X5.0256Y-2.7634
X5.0583Y-2.2224
X5.1362Y-4.6244
X5.2394Y-2.2224
X5.2618Y-3.3224
X5.6843Y-2.2224
X5.8654Y-2.2224
T6
X7.4126Y-5.924
X7.6882Y-5.924
T7
X6.2618Y-2.8224
X6.4618Y-2.8224
X6.8618Y-2.8224
X7.0618Y-2.8224
T8
X5.7327Y-5.6224
X5.7327Y-6.0224
X6.3327Y-5.6224
X6.3327Y-6.0224
T0
M30
